<?xml version="1.0" standalone="no"?>
<!DOCTYPE svg PUBLIC "-//W3C//DTD SVG 20010904//EN"
 "http://www.w3.org/TR/2001/REC-SVG-20010904/DTD/svg10.dtd">
<svg version="1.0" xmlns="http://www.w3.org/2000/svg"
 width="3600.000000pt" height="3600.000000pt" viewBox="0 0 3600.000000 3600.000000"
 preserveAspectRatio="xMidYMid meet">

<g transform="translate(0.000000,3600.000000) scale(0.100000,-0.100000)"
fill="#000000" stroke="none">
<path d="M13071 26285 c-225 -63 -358 -250 -306 -431 26 -90 62 -149 136 -219
79 -74 149 -105 254 -112 227 -16 428 126 442 311 13 160 -108 366 -254 433
-72 33 -190 41 -272 18z"/>
<path d="M21561 26285 c-220 -62 -353 -239 -311 -417 47 -197 227 -348 417
-348 118 0 257 52 334 126 44 42 81 120 86 182 15 161 -108 372 -254 439 -72
33 -190 41 -272 18z"/>
<path d="M1074 25745 c-177 -39 -296 -166 -326 -351 -9 -52 -7 -325 6 -1129
10 -583 21 -1274 25 -1535 7 -469 7 -476 30 -519 49 -94 168 -177 297 -207 51
-11 106 -15 209 -12 135 3 143 4 207 36 118 58 184 154 208 305 13 84 32 1126
23 1330 l-6 157 250 0 c241 0 251 1 293 23 67 35 80 69 80 213 0 109 -2 124
-22 154 -51 75 -50 75 -340 78 l-261 3 6 427 c4 235 10 460 14 500 l6 74 446
-4 446 -3 33 23 c53 38 66 74 70 194 4 95 2 112 -18 152 -32 68 -68 85 -186
91 -54 2 -398 7 -764 9 -530 4 -677 2 -726 -9z"/>
<path d="M11504 25749 c-183 -22 -300 -110 -366 -279 -20 -50 -22 -77 -26
-293 -2 -130 -7 -235 -11 -233 -4 3 -77 13 -162 22 -567 61 -996 -86 -1322
-454 -186 -210 -367 -566 -422 -829 -23 -110 -33 -534 -15 -680 74 -633 428
-1055 885 -1056 355 -1 705 252 1011 729 l69 107 5 -284 5 -284 30 -54 c37
-66 100 -123 179 -160 95 -45 157 -56 311 -56 122 0 147 3 197 23 108 44 182
125 219 242 33 104 41 389 40 1510 -1 642 4 1118 11 1295 7 154 12 306 11 338
-3 173 -147 334 -341 381 -76 19 -220 26 -308 15z m-471 -1278 c43 -10 80 -20
82 -23 10 -9 6 -278 -4 -358 -42 -311 -132 -594 -287 -900 -110 -219 -226
-394 -346 -525 -73 -81 -200 -121 -243 -78 -94 93 -102 485 -19 883 55 264
158 512 307 737 168 256 287 318 510 264z"/>
<path d="M19026 25744 c-171 -41 -282 -158 -317 -333 -14 -72 -8 -600 29
-2751 8 -459 6 -444 93 -532 102 -102 231 -142 444 -136 125 3 146 6 196 30
104 48 173 133 205 252 22 78 34 444 34 1023 l0 522 259 3 c289 3 288 3 339
78 20 30 22 45 22 155 0 110 -2 125 -22 155 -51 75 -50 75 -340 78 l-261 3 6
452 c4 249 10 474 13 501 l7 48 427 -7 c417 -7 428 -7 473 13 66 29 84 64 92
177 10 126 1 169 -44 217 -31 33 -45 40 -96 47 -33 5 -384 11 -780 14 -600 4
-730 3 -779 -9z"/>
<path d="M28615 25750 c-121 -14 -212 -57 -282 -133 -95 -103 -113 -175 -113
-457 l0 -216 -97 15 c-61 8 -183 14 -323 14 -195 1 -238 -2 -322 -20 -285 -64
-505 -185 -703 -388 -49 -50 -120 -134 -158 -186 -126 -176 -278 -511 -317
-699 -18 -86 -30 -467 -19 -609 41 -537 300 -965 658 -1086 201 -68 409 -49
616 58 115 60 214 138 345 274 121 125 196 221 290 371 l57 90 6 -196 c4 -107
7 -232 7 -276 0 -102 26 -161 99 -229 104 -97 263 -143 461 -134 125 5 198 30
265 89 82 72 120 159 136 308 6 56 15 668 21 1485 5 765 11 1440 12 1500 1
102 -1 114 -27 167 -59 120 -170 208 -302 241 -77 19 -220 27 -310 17z m-505
-1271 c25 -5 62 -14 83 -20 l37 -10 0 -129 c0 -492 -220 -1107 -553 -1545
-101 -132 -144 -171 -209 -190 -32 -9 -72 -15 -90 -13 -28 3 -37 11 -60 52
-106 198 -50 805 113 1211 100 248 292 536 407 607 73 45 176 59 272 37z"/>
<path d="M33325 25714 c-168 -26 -289 -126 -347 -285 -22 -63 -23 -71 -21
-389 1 -179 7 -584 14 -900 6 -316 14 -863 17 -1215 l7 -640 28 -57 c74 -151
275 -238 517 -225 52 3 118 12 147 21 114 36 195 121 233 244 25 78 39 348 40
742 0 332 31 597 105 906 103 430 257 761 457 978 88 97 147 123 207 92 45
-24 137 -131 171 -199 47 -96 81 -273 83 -427 1 -134 -8 -189 -55 -340 -38
-123 -36 -206 9 -301 68 -145 155 -195 419 -240 213 -36 262 -34 364 17 125
63 182 148 225 341 118 517 41 1050 -200 1389 -125 174 -312 308 -505 361
-103 28 -347 25 -464 -6 -216 -56 -363 -145 -541 -325 -66 -66 -150 -163 -185
-214 -36 -52 -71 -101 -78 -110 -10 -14 -11 11 -5 128 15 278 12 326 -23 401
-54 114 -159 197 -295 235 -54 15 -267 27 -324 18z"/>
<path d="M22991 25694 c-165 -44 -273 -167 -303 -344 -9 -54 -8 -281 5 -1042
10 -535 20 -1207 23 -1493 7 -592 5 -582 84 -668 89 -98 199 -141 392 -152
167 -11 274 21 358 105 76 76 103 162 130 406 21 194 112 602 205 919 115 391
245 742 370 1000 136 279 248 445 302 445 19 0 78 -95 107 -172 58 -154 116
-452 155 -793 47 -411 69 -1007 53 -1412 -8 -187 -8 -290 -2 -314 14 -49 62
-113 108 -144 55 -36 122 -45 347 -45 219 0 267 8 335 55 81 56 124 147 140
298 19 184 30 813 20 1152 -37 1315 -272 1984 -743 2120 -76 22 -222 22 -313
0 -90 -22 -232 -91 -314 -154 -134 -101 -287 -279 -413 -479 -77 -122 -239
-439 -303 -595 l-49 -118 -3 203 c-2 112 2 357 8 545 14 392 12 408 -63 509
-64 87 -171 152 -287 174 -78 15 -285 11 -349 -6z"/>
<path d="M4138 25664 c-469 -85 -904 -548 -1076 -1145 -72 -246 -100 -449
-109 -764 -11 -434 36 -695 181 -1000 148 -311 357 -527 642 -662 145 -69 262
-95 419 -96 359 -1 666 130 916 390 46 48 105 117 130 153 245 346 375 839
355 1349 -29 772 -333 1387 -821 1666 -186 106 -426 147 -637 109z m547 -616
c253 -231 435 -738 435 -1213 l0 -106 -42 23 c-144 79 -299 313 -382 578 -56
177 -126 595 -126 753 l0 58 30 -21 c16 -11 54 -44 85 -72z m-496 -663 c68
-277 150 -478 270 -657 159 -238 330 -373 583 -461 16 -6 15 -15 -16 -104
-115 -329 -282 -540 -510 -643 -139 -63 -201 -60 -285 16 -88 79 -150 203
-205 412 -51 193 -67 341 -73 655 -9 461 27 762 130 1081 l31 99 23 -139 c13
-76 36 -193 52 -259z"/>
<path d="M7245 25666 c-395 -77 -774 -416 -981 -877 -185 -414 -257 -1017
-183 -1522 28 -198 82 -363 180 -560 99 -196 256 -383 419 -498 213 -151 468
-231 680 -214 258 20 451 84 642 211 350 233 588 657 675 1204 28 177 25 625
-5 810 -109 664 -404 1139 -849 1364 -154 78 -410 115 -578 82z m550 -628
c255 -244 405 -651 431 -1170 4 -76 4 -138 0 -138 -4 0 -31 16 -61 35 -166
106 -313 352 -389 650 -49 196 -106 567 -106 695 0 28 2 30 21 19 12 -6 59
-47 104 -91z m-565 -307 c0 -85 74 -409 136 -596 143 -431 433 -763 750 -856
43 -13 44 -15 38 -44 -3 -16 -21 -70 -40 -118 -108 -283 -260 -476 -454 -576
-113 -59 -176 -76 -227 -62 -177 48 -308 337 -363 806 -18 151 -24 526 -11
690 22 281 64 514 128 712 26 81 43 98 43 44z"/>
<path d="M15395 25654 c-553 -100 -956 -542 -1129 -1239 -60 -239 -81 -451
-73 -724 10 -349 71 -627 192 -888 178 -382 422 -605 786 -721 350 -112 647
-104 915 22 265 126 471 327 717 701 138 211 148 240 106 314 -39 69 -174 161
-235 161 -65 0 -99 -31 -178 -163 -233 -386 -427 -564 -671 -614 -95 -19 -195
-9 -269 27 -189 91 -341 393 -391 777 -23 172 -30 155 76 176 230 44 562 213
804 409 187 151 368 372 449 549 152 329 111 711 -101 940 -178 191 -448 290
-788 288 -71 0 -166 -7 -210 -15z m570 -514 c117 -113 125 -323 21 -525 -101
-197 -285 -377 -534 -526 -94 -56 -268 -136 -277 -127 -7 7 25 229 51 352 35
163 93 336 163 481 89 184 184 297 302 358 50 26 61 28 146 25 90 -3 93 -4
128 -38z"/>
<path d="M30975 25659 c-641 -93 -1100 -682 -1217 -1559 -19 -144 -16 -538 5
-685 78 -537 307 -961 638 -1181 110 -74 186 -110 320 -152 282 -90 538 -102
767 -36 104 30 273 116 367 186 184 137 409 408 583 704 68 114 56 175 -52
261 -80 65 -116 83 -164 83 -61 0 -99 -33 -160 -140 -128 -224 -292 -426 -417
-516 -275 -195 -555 -170 -715 66 -112 165 -183 374 -215 635 -8 66 -15 124
-15 130 0 6 31 16 70 23 112 19 246 67 395 141 630 312 1005 810 970 1290 -15
213 -78 356 -219 496 -72 71 -110 100 -181 137 -110 56 -229 95 -355 114 -103
15 -309 17 -405 3z m544 -523 c57 -56 84 -123 89 -226 9 -191 -82 -375 -288
-580 -143 -143 -354 -282 -522 -345 l-68 -25 0 35 c0 108 56 381 115 560 102
310 231 506 390 593 57 31 65 32 152 30 l92 -3 40 -39z"/>
<path d="M13049 25359 c-174 -25 -300 -114 -356 -250 -22 -53 -22 -149 -3
-669 8 -211 14 -739 15 -1300 1 -1052 -4 -970 70 -1045 74 -73 185 -108 345
-107 109 0 220 20 296 53 77 32 154 117 182 197 35 102 82 1390 82 2237 -1
495 -7 608 -40 677 -45 96 -158 176 -289 204 -71 15 -212 17 -302 3z"/>
<path d="M21545 25360 c-177 -27 -289 -99 -352 -228 -27 -55 -28 -62 -27 -207
0 -82 7 -312 14 -510 8 -217 14 -729 14 -1290 l1 -930 28 -47 c71 -122 253
-182 472 -157 200 22 314 87 374 212 27 56 31 77 40 212 31 457 51 1069 58
1805 8 875 3 920 -109 1026 -107 103 -300 146 -513 114z"/>
</g>
</svg>
